<?xml version="1.0" standalone="no"?>
<!DOCTYPE svg PUBLIC "-//W3C//DTD SVG 20010904//EN"
 "http://www.w3.org/TR/2001/REC-SVG-20010904/DTD/svg10.dtd">
<svg version="1.0" xmlns="http://www.w3.org/2000/svg"
 width="273.000000pt" height="273.000000pt" viewBox="0 0 273.000000 273.000000"
 preserveAspectRatio="xMidYMid meet">
<metadata>
Created by potrace 1.11, written by Peter Selinger 2001-2013
</metadata>
<g transform="translate(0.000000,273.000000) scale(0.100000,-0.100000)"
fill="#000000" stroke="none">
<path d="M1140 2707 c-3 -2 -29 -7 -58 -10 -29 -3 -60 -11 -68 -18 -8 -6 -17
-9 -20 -6 -3 3 -21 -1 -40 -9 -19 -8 -34 -12 -34 -9 0 3 -10 0 -22 -7 -13 -7
-25 -13 -28 -14 -25 -6 -138 -64 -189 -97 -36 -23 -68 -41 -72 -40 -4 2 -11
-6 -14 -17 -4 -11 -15 -20 -25 -20 -10 0 -20 -4 -22 -8 -1 -4 -29 -28 -60 -54
-31 -25 -55 -48 -52 -51 3 -3 -4 -8 -15 -12 -12 -3 -21 -9 -21 -13 0 -4 -24
-32 -53 -63 -29 -32 -59 -70 -67 -85 -8 -16 -22 -36 -30 -44 -8 -8 -26 -35
-39 -60 -14 -25 -28 -47 -31 -50 -30 -21 -131 -274 -145 -363 -3 -17 -8 -43
-10 -57 -28 -140 -16 -402 24 -557 5 -21 12 -56 16 -78 3 -21 13 -47 21 -56 9
-10 13 -23 9 -28 -3 -6 -1 -11 4 -11 6 0 11 -6 11 -14 0 -18 61 -150 72 -154
4 -2 8 -10 8 -18 0 -14 54 -103 86 -141 11 -12 29 -35 41 -50 33 -43 123 -131
157 -155 17 -12 43 -34 59 -50 15 -15 34 -28 41 -28 8 0 16 -3 18 -7 6 -15
126 -93 142 -93 9 0 16 -3 16 -8 0 -4 15 -13 32 -21 18 -7 46 -20 63 -28 16
-7 46 -16 65 -19 19 -3 43 -10 52 -15 9 -5 28 -9 42 -9 13 0 31 -6 39 -14 8
-9 19 -11 28 -6 8 5 19 4 28 -3 18 -16 408 -20 471 -6 25 6 59 12 76 14 17 3
43 9 58 15 14 5 26 7 26 5 0 -3 15 1 33 8 17 8 34 14 37 15 34 6 122 43 160
67 22 14 46 25 53 25 8 0 26 9 40 20 14 11 28 20 31 20 4 0 16 8 27 18 10 11
32 25 47 33 15 8 33 19 39 26 7 6 29 21 50 34 21 13 42 29 46 36 4 7 15 13 22
13 8 0 15 4 15 8 0 4 23 32 51 62 28 30 60 68 72 83 12 15 30 38 40 49 9 12
17 27 17 35 0 7 4 13 8 13 14 0 100 187 108 234 3 16 9 37 15 48 5 10 7 18 4
18 -3 0 1 13 10 30 8 16 15 32 14 35 -2 13 14 91 21 100 9 12 22 113 26 200 8
173 3 227 -31 360 -38 143 -45 165 -57 165 -6 0 -8 9 -5 20 3 11 2 20 -3 20
-4 0 -13 15 -20 33 -6 17 -16 40 -21 49 -5 10 -9 24 -9 32 0 20 -40 86 -51 86
-5 0 -9 8 -9 19 0 10 -7 24 -15 31 -9 7 -29 33 -45 57 -33 49 -45 64 -77 99
-12 13 -20 24 -17 24 5 0 -20 22 -79 70 -10 8 -31 25 -45 37 -15 13 -32 23
-39 23 -6 0 -13 3 -15 8 -6 13 -88 74 -88 65 0 -4 -5 0 -11 10 -5 9 -19 17
-29 17 -11 0 -20 5 -20 10 0 6 -7 10 -15 10 -9 0 -26 9 -37 20 -12 11 -27 19
-32 17 -6 -2 -26 7 -45 20 -18 13 -42 23 -51 23 -10 0 -31 7 -46 15 -16 8 -45
17 -64 20 -19 4 -57 13 -85 21 -27 8 -61 17 -75 20 -33 7 -434 18 -440 11z"/>
</g>
</svg>
